<svg width="22" height="22" viewBox="0 0 22 22" fill="none" xmlns="http://www.w3.org/2000/svg">
<path d="M13.6514 11.0003L21.0733 3.57845C21.4255 3.22683 21.6236 2.74968 21.6241 2.25198C21.6245 1.75428 21.4272 1.27678 21.0756 0.924542C20.724 0.572301 20.2468 0.374167 19.7491 0.373728C19.2514 0.373288 18.7739 0.570579 18.4217 0.922198L10.9998 8.34407L3.57796 0.922198C3.22572 0.569957 2.74798 0.37207 2.24983 0.37207C1.75169 0.37207 1.27395 0.569957 0.92171 0.922198C0.569469 1.27444 0.371582 1.75218 0.371582 2.25032C0.371582 2.74847 0.569469 3.22621 0.92171 3.57845L8.34358 11.0003L0.92171 18.4222C0.569469 18.7744 0.371582 19.2522 0.371582 19.7503C0.371582 20.2485 0.569469 20.7262 0.92171 21.0784C1.27395 21.4307 1.75169 21.6286 2.24983 21.6286C2.74798 21.6286 3.22572 21.4307 3.57796 21.0784L10.9998 13.6566L18.4217 21.0784C18.7739 21.4307 19.2517 21.6286 19.7498 21.6286C20.248 21.6286 20.7257 21.4307 21.078 21.0784C21.4302 20.7262 21.6281 20.2485 21.6281 19.7503C21.6281 19.2522 21.4302 18.7744 21.078 18.4222L13.6514 11.0003Z" fill="white"/>
</svg>
