<svg width="30" height="30" viewBox="0 0 30 30" fill="none" xmlns="http://www.w3.org/2000/svg">
<g clip-path="url(#clip0_15_312)">
<path d="M29.9822 15.2807C29.9822 14.0516 29.8801 13.1547 29.6593 12.2246H15.2988V17.7721H23.7281C23.5582 19.1507 22.6405 21.2269 20.6011 22.622L20.5725 22.8077L25.113 26.2455L25.4276 26.2762C28.3166 23.6685 29.9822 19.8317 29.9822 15.2807Z" fill="#4285F4"/>
<path d="M15.299 29.8973C19.4286 29.8973 22.8955 28.5684 25.4278 26.2764L20.6013 22.6223C19.3097 23.5026 17.5762 24.1171 15.299 24.1171C11.2543 24.1171 7.82139 21.5095 6.59766 17.9053L6.41829 17.9202L1.697 21.4912L1.63525 21.6589C4.15043 26.5421 9.31681 29.8973 15.299 29.8973Z" fill="#34A853"/>
<path d="M6.59727 17.9045C6.27438 16.9744 6.08751 15.9777 6.08751 14.948C6.08751 13.9182 6.27438 12.9216 6.58028 11.9915L6.57173 11.7934L1.79127 8.16504L1.63486 8.23775C0.598236 10.2641 0.00341797 12.5397 0.00341797 14.948C0.00341797 17.3564 0.598236 19.6318 1.63486 21.6582L6.59727 17.9045Z" fill="#FBBC05"/>
<path d="M15.299 5.78004C18.171 5.78004 20.1084 6.99252 21.2131 8.00576L25.5297 3.8866C22.8786 1.47824 19.4286 0 15.299 0C9.31681 0 4.15043 3.35508 1.63525 8.23821L6.58067 11.992C7.82139 8.38775 11.2543 5.78004 15.299 5.78004Z" fill="#EB4335"/>
</g>
<defs>
<clipPath id="clip0_15_312">
<rect width="30" height="30" fill="white"/>
</clipPath>
</defs>
</svg>
